<svg width="16" height="16" viewBox="0 0 16 16" fill="none" xmlns="http://www.w3.org/2000/svg">
<path d="M15.9094 4.3235C15.8633 4.25628 15.8022 4.20142 15.7312 4.16353C15.6601 4.12564 15.5812 4.10583 15.5012 4.10578H4.83625L4.02896 1.24716C3.71237 0.121517 2.96009 0 2.65155 0H0.499015C0.223117 0 0 0.22936 0 0.512384C0 0.795408 0.223369 1.02475 0.498999 1.02475H2.65128C2.71937 1.02475 2.92716 1.02475 3.06889 1.52759L5.84605 12.0077C5.90635 12.2288 6.10258 12.3815 6.32644 12.3815H13.1099C13.3205 12.3815 13.5084 12.2461 13.5795 12.0425L15.9705 4.79151C16.0255 4.63438 16.0027 4.45946 15.9094 4.3235H15.9094ZM12.7587 11.3571H6.70519L5.11674 5.13081H14.7917L12.7587 11.3571ZM11.7691 13.42C11.0751 13.42 10.5128 13.9974 10.5128 14.71C10.5128 15.4226 11.0751 16 11.7691 16C12.463 16 13.0253 15.4226 13.0253 14.71C13.0253 13.9974 12.463 13.42 11.7691 13.42ZM7.2464 13.42C6.55243 13.42 5.99011 13.9974 5.99011 14.71C5.99011 15.4226 6.55243 16 7.2464 16C7.94038 16 8.5027 15.4226 8.5027 14.71C8.5027 13.9974 7.94038 13.42 7.2464 13.42Z" fill="white"/>
</svg>
